<svg width="85" height="20" viewBox="0 0 97 20" fill="none" xmlns="http://www.w3.org/2000/svg">
<g clip-path="url(#clip0_4603_10371)">
<path d="M4.84968 0C2.50567 0 0.605469 1.9002 0.605469 4.24421V8.40934L3.57512 5.63336C5.90152 3.45868 9.67337 3.45868 11.9998 5.63337L16.4498 9.79318C16.578 9.913 16.578 10.1163 16.4498 10.2361L7.13078 18.9474H15.3086C17.6526 18.9474 19.5528 17.0472 19.5528 14.7032V4.24421C19.5528 1.9002 17.6526 0 15.3086 0H4.84968Z" fill="#1C1917"/>
<path d="M96.1788 2.14722V16.138H93.1836V2.14722H96.1788Z" fill="#1C1917"/>
<path d="M91.3498 11.0933C91.3498 12.1706 91.1133 13.1164 90.6405 13.9309C90.1807 14.7453 89.5107 15.3693 88.6305 15.8029C87.7634 16.2364 86.752 16.4531 85.5958 16.4531C84.4135 16.4531 83.3889 16.2364 82.5218 15.8029C81.6548 15.3693 80.9849 14.7453 80.5119 13.9309C80.0522 13.1164 79.8223 12.1706 79.8223 11.0933V2.12744H82.8174V11.0933C82.8174 12.0129 83.0539 12.7158 83.5268 13.2018C84.0129 13.6879 84.7026 13.9309 85.5958 13.9309C86.4629 13.9309 87.1394 13.6879 87.6255 13.2018C88.1116 12.7158 88.3546 12.0129 88.3546 11.0933V2.12744H91.3498V11.0933Z" fill="#1C1917"/>
<path d="M74.4559 16.1378H71.5985L71.5395 14.6204C71.2504 15.1854 70.8367 15.6189 70.298 15.921C69.7594 16.2232 69.1223 16.3742 68.3867 16.3742C67.4408 16.3742 66.6329 16.1378 65.9629 15.6649C65.306 15.1919 64.8069 14.5482 64.4653 13.7337C64.1369 12.9061 63.9727 11.9669 63.9727 10.9159C63.9727 9.86493 64.1369 8.93221 64.4653 8.11773C64.8069 7.29011 65.306 6.63984 65.9629 6.16691C66.6329 5.69398 67.4408 5.45752 68.3867 5.45752C69.0829 5.45752 69.6937 5.60202 70.2192 5.89104C70.7447 6.18005 71.1651 6.60042 71.4803 7.15217V5.69398H74.4559V16.1378ZM67.0073 10.9159C67.0073 11.8355 67.2043 12.6039 67.5984 13.2214C68.0057 13.8257 68.5771 14.1278 69.3128 14.1278C69.8251 14.1278 70.252 13.9833 70.5936 13.6943C70.9483 13.4053 71.2111 13.0178 71.3818 12.5317C71.5657 12.0326 71.6577 11.4939 71.6577 10.9159C71.6577 10.3116 71.5657 9.7664 71.3818 9.28034C71.2111 8.78114 70.9483 8.38704 70.5936 8.09803C70.252 7.80901 69.8251 7.66451 69.3128 7.66451C68.5509 7.66451 67.9729 7.97322 67.5788 8.59066C67.1977 9.19495 67.0073 9.97003 67.0073 10.9159Z" fill="#1C1917"/>
<path d="M56.1387 5.69398L56.2569 8.7483L55.8825 8.63007C56.027 7.51344 56.4015 6.70552 57.0058 6.20632C57.6231 5.70712 58.3982 5.45752 59.3309 5.45752C60.4607 5.45752 61.3409 5.81221 61.9715 6.5216C62.602 7.23099 62.9174 8.19655 62.9174 9.41828V16.1378H59.9616V10.4035C59.9616 9.51024 59.8433 8.85339 59.6068 8.43301C59.3704 8.01264 58.95 7.80245 58.3457 7.80245C57.7283 7.80245 57.2554 8.02577 56.9269 8.47242C56.5985 8.91908 56.4343 9.56278 56.4343 10.4035V16.1378H53.4785V5.69398H56.1387Z" fill="#1C1917"/>
<path d="M44.6323 5.69409L47.2334 13.0441L49.7557 5.69409H52.5538L48.4552 17.1429C48.2055 17.8129 47.8442 18.3055 47.3714 18.6208C46.9116 18.936 46.3007 19.0937 45.5388 19.0937H43.6668V16.9458H44.987C45.3023 16.9458 45.5453 16.8933 45.7161 16.7881C45.9 16.6831 46.0446 16.4992 46.1496 16.2365L46.4058 15.6058H45.5781L41.8145 5.69409H44.6323Z" fill="#1C1917"/>
<path d="M29.6154 2.14722L33.1821 12.3348L36.7093 2.14722H40.7292V16.138H37.7143V6.99472L34.4432 16.0985H31.8815L28.6105 6.99472V16.138H25.6152V2.14722H29.6154Z" fill="#1C1917"/>
</g>
<defs>
<clipPath id="clip0_4603_10371">
<rect width="97" height="20" fill="white"/>
</clipPath>
</defs>
</svg>
